<svg width="285" height="285" viewBox="0 0 285 285" fill="none" xmlns="http://www.w3.org/2000/svg">
<rect width="285" height="285" rx="19" transform="matrix(-1 0 0 1 285 0)" fill="#FF8F6B"/>
<rect width="246" height="246" rx="19" transform="matrix(-1 0 0 1 266 20)" fill="#685E84"/>
<path d="M70.9995 98.02C82.5729 98.02 88.3595 104.18 88.3595 116.5V190H68.7595V159.62H54.6195V190H35.0195V116.5C35.0195 104.18 40.8062 98.02 52.3795 98.02H70.9995ZM54.6195 144.5H68.7595V114.12C68.7595 113.373 68.4795 112.72 67.9195 112.16C67.4529 111.6 66.8462 111.32 66.0995 111.32H57.2795C56.5329 111.32 55.8795 111.6 55.3195 112.16C54.8529 112.72 54.6195 113.373 54.6195 114.12V144.5ZM136.709 175.16V161.16H155.329V172.92C155.329 185.24 149.542 191.4 137.969 191.4H120.329C108.755 191.4 102.969 185.24 102.969 172.92V116.5C102.969 104.18 108.755 98.02 120.329 98.02H137.969C149.542 98.02 155.329 104.18 155.329 116.5V125.04H136.709V114.12C136.709 113.373 136.429 112.72 135.869 112.16C135.402 111.6 134.795 111.32 134.049 111.32H125.229C124.482 111.32 123.829 111.6 123.269 112.16C122.802 112.72 122.569 113.373 122.569 114.12V175.16C122.569 175.907 122.802 176.56 123.269 177.12C123.829 177.68 124.482 177.96 125.229 177.96H134.049C134.795 177.96 135.402 177.68 135.869 177.12C136.429 176.56 136.709 175.907 136.709 175.16ZM186.55 190H166.95V116.5C166.95 104.18 172.737 98.02 184.31 98.02H194.67C201.483 98.02 206.337 100.26 209.23 104.74C211.937 100.26 216.79 98.02 223.79 98.02H234.15C245.723 98.02 251.51 104.18 251.51 116.5V190H231.91V114.82C231.91 114.073 231.63 113.42 231.07 112.86C230.603 112.3 229.997 112.02 229.25 112.02H221.69C220.943 112.02 220.29 112.3 219.73 112.86C219.263 113.42 219.03 114.073 219.03 114.82V190H199.43V114.82C199.43 114.073 199.15 113.42 198.59 112.86C198.123 112.3 197.517 112.02 196.77 112.02H189.21C188.463 112.02 187.81 112.3 187.25 112.86C186.783 113.42 186.55 114.073 186.55 114.82V190Z" fill="#FFB9B9"/>
</svg>
